<svg xmlns="http://www.w3.org/2000/svg" version="1.1" xmlns:xlink="http://www.w3.org/1999/xlink" xmlns:svgjs="http://svgjs.dev/svgjs" width="1000" height="1000" viewBox="0 0 1000 1000"><rect width="1000" height="1000" fill="#c8c8c8"></rect><g transform="matrix(0.7,0,0,0.7,149.57575758996478,305.72863637149396)"><svg viewBox="0 0 396 220" data-background-color="#c8c8c8" preserveAspectRatio="xMidYMid meet" height="555" width="1000" xmlns="http://www.w3.org/2000/svg" xmlns:xlink="http://www.w3.org/1999/xlink"><defs></defs><g id="tight-bounds" transform="matrix(1,0,0,1,0.24000000803721377,0.012097807648189018)"><svg viewBox="0 0 395.52 219.97580438470362" height="219.97580438470362" width="395.52"><g><svg viewBox="0 0 395.52 219.97580438470362" height="219.97580438470362" width="395.52"><g transform="matrix(1,0,0,1,0,159.93437874480784)"><svg viewBox="0 0 395.52 60.04142563989579" height="60.04142563989579" width="395.52"><g><svg viewBox="0 0 395.52 60.04142563989579" height="60.04142563989579" width="395.52"><g><svg viewBox="0 0 395.52 32.38347599553405" height="32.38347599553405" width="395.52"><g transform="matrix(1,0,0,1,0,0)"><svg width="395.52" viewBox="2.299999952316284 -33.5 537.06005859375 44" height="32.38347599553405" data-palette-color="#f70c0c"><g class="undefined-text-0" data-fill-palette-color="primary" id="text-0"><path d="M9.2-0.5L9.2-0.5 9.45-0.5 9.45 0 2.3 0 2.3-0.5 2.55-0.5Q2.95-0.5 3.25-0.78 3.55-1.05 3.78-1.45 4-1.85 4.1-2.3 4.2-2.75 4.2-3.15L4.2-3.15 4.2-29.9Q4.2-30.25 4.1-30.7 4-31.15 3.8-31.55 3.6-31.95 3.28-32.23 2.95-32.5 2.55-32.5L2.55-32.5 2.3-32.5 2.3-33 21.5-33 21.5-28.35 21-28.35Q21-29.5 20.23-30.38 19.45-31.25 17.8-31.25L17.8-31.25 7.55-31.25 7.55-18.6 15.85-18.6Q17-18.6 17.78-19.3 18.55-20 18.55-20.95L18.55-20.95 19.05-20.95 19.05-14.7 18.55-14.7Q18.55-15.6 17.8-16.25 17.05-16.9 15.85-16.9L15.85-16.9 7.55-16.9 7.55-3.15Q7.55-2.75 7.65-2.3 7.75-1.85 7.98-1.45 8.2-1.05 8.5-0.78 8.8-0.5 9.2-0.5ZM45.05-21.55L45.05-3.25Q45.05-2.9 45.15-2.43 45.25-1.95 45.42-1.53 45.6-1.1 45.9-0.8 46.2-0.5 46.6-0.5L46.6-0.5 46.6 0 41.75 0 41.75-2.75Q41-1.65 39.55-0.6 38.1 0.45 35.8 0.45L35.8 0.45Q32.9 0.45 31.2-0.55 29.5-1.55 28.6-3.1 27.7-4.65 27.45-6.48 27.2-8.3 27.2-9.9L27.2-9.9 27.2-17.05Q27.2-17.5 27.17-17.93 27.15-18.35 26.97-18.7 26.8-19.05 26.45-19.28 26.1-19.5 25.45-19.5L25.45-19.5 25.45-19.95 30.5-21.55 30.5-8.8Q30.5-5 32.15-3.2 33.8-1.4 36.2-1.4L36.2-1.4Q37.5-1.4 38.52-1.98 39.55-2.55 40.27-3.35 41-4.15 41.37-5 41.75-5.85 41.75-6.4L41.75-6.4 41.75-17.05Q41.75-17.5 41.72-17.93 41.7-18.35 41.52-18.7 41.35-19.05 41-19.28 40.65-19.5 40-19.5L40-19.5 40-19.95 45.05-21.55ZM71.55-12.9L71.55-3.25Q71.55-2.85 71.65-2.38 71.75-1.9 71.97-1.5 72.2-1.1 72.47-0.8 72.75-0.5 73.15-0.5L73.15-0.5 73.15 0 66.7 0 66.7-0.5Q67.05-0.5 67.35-0.8 67.65-1.1 67.87-1.5 68.1-1.9 68.2-2.38 68.3-2.85 68.3-3.25L68.3-3.25 68.3-12.55Q68.3-14.35 67.8-15.7 67.3-17.05 66.45-17.95 65.6-18.85 64.52-19.28 63.45-19.7 62.35-19.7L62.35-19.7Q61.25-19.7 60.17-19.25 59.1-18.8 58.27-18.07 57.45-17.35 56.92-16.38 56.4-15.4 56.4-14.35L56.4-14.35 56.4-3.25Q56.4-2.85 56.5-2.38 56.6-1.9 56.82-1.5 57.05-1.1 57.32-0.8 57.6-0.5 58-0.5L58-0.5 58 0 51.5 0 51.5-0.5Q51.85-0.5 52.15-0.8 52.45-1.1 52.67-1.5 52.9-1.9 53-2.38 53.1-2.85 53.1-3.25L53.1-3.25 53.1-17.05Q53.1-17.9 52.85-18.68 52.6-19.45 51.4-19.5L51.4-19.5 51.4-19.95 56.4-21.55 56.4-18.8Q56.75-19.2 57.3-19.68 57.85-20.15 58.62-20.58 59.4-21 60.42-21.28 61.45-21.55 62.85-21.55L62.85-21.55Q65.2-21.55 66.85-20.75 68.5-19.95 69.55-18.68 70.6-17.4 71.07-15.88 71.55-14.35 71.55-12.9L71.55-12.9ZM98.84 0L93.94 0 93.94-2.2Q93.09-1.25 91.67-0.45 90.24 0.35 88.09 0.35L88.09 0.35Q85.44 0.35 83.47-0.58 81.49-1.5 80.19-3 78.89-4.5 78.27-6.43 77.64-8.35 77.64-10.4L77.64-10.4Q77.64-12.4 78.29-14.38 78.94-16.35 80.24-17.9 81.54-19.45 83.49-20.4 85.44-21.35 87.99-21.35L87.99-21.35Q89.69-21.35 91.34-20.73 92.99-20.1 93.94-19.1L93.94-19.1 93.94-28.85Q93.94-29.7 93.69-30.45 93.44-31.2 92.24-31.25L92.24-31.25 92.24-31.75 97.24-33.3 97.24-3.25Q97.24-2.85 97.34-2.38 97.44-1.9 97.64-1.5 97.84-1.1 98.14-0.8 98.44-0.5 98.84-0.5L98.84-0.5 98.84 0ZM88.44-1.3L88.44-1.3Q89.49-1.3 90.49-1.73 91.49-2.15 92.24-2.88 92.99-3.6 93.47-4.58 93.94-5.55 93.94-6.7L93.94-6.7 93.94-13.55Q93.94-14.95 93.34-16.07 92.74-17.2 91.84-18 90.94-18.8 89.87-19.23 88.79-19.65 87.79-19.65L87.79-19.65Q86.14-19.65 84.84-18.88 83.54-18.1 82.64-16.88 81.74-15.65 81.29-14.13 80.84-12.6 80.84-11.1L80.84-11.1Q80.84-9.35 81.34-7.63 81.84-5.9 82.82-4.53 83.79-3.15 85.19-2.25 86.59-1.35 88.44-1.3ZM121.74 0L116.89 0 116.89-2.55 116.64-2.3Q115.39-1.05 113.77-0.35 112.14 0.35 109.84 0.35L109.84 0.35Q108.09 0.35 106.84-0.05 105.59-0.45 104.79-1.18 103.99-1.9 103.62-2.85 103.24-3.8 103.24-4.85L103.24-4.85Q103.24-6.55 104.17-7.85 105.09-9.15 106.84-10.15 108.59-11.15 111.12-11.98 113.64-12.8 116.89-13.6L116.89-13.6Q116.79-15.55 116.09-16.75 115.39-17.95 114.44-18.63 113.49-19.3 112.44-19.53 111.39-19.75 110.64-19.75L110.64-19.75Q109.34-19.75 108.37-19.35 107.39-18.95 106.67-18.32 105.94-17.7 105.44-16.98 104.94-16.25 104.64-15.6L104.64-15.6 104.19-15.6 104.19-19.25Q104.59-19.3 104.94-19.5 105.29-19.7 105.79-19.9L105.79-19.9Q106.54-20.2 107.84-20.78 109.14-21.35 111.49-21.35L111.49-21.35Q114.24-21.35 115.94-20.65 117.64-19.95 118.57-18.8 119.49-17.65 119.79-16.18 120.09-14.7 120.09-13.15L120.09-13.15 120.09-3.25Q120.09-2.25 120.54-1.38 120.99-0.5 121.74-0.5L121.74-0.5 121.74 0ZM116.34-4.15L116.89-4.75 116.89-11.9 116.39-11.8Q115.19-11.5 113.47-11 111.74-10.5 110.19-9.7 108.64-8.9 107.54-7.8 106.44-6.7 106.44-5.25L106.44-5.25Q106.44-3.65 107.74-2.6 109.04-1.55 111.14-1.55L111.14-1.55Q112.79-1.55 114.04-2.27 115.29-3 116.34-4.15L116.34-4.15ZM158.54-12.6L158.54-3.25Q158.54-2.85 158.64-2.38 158.74-1.9 158.94-1.5 159.14-1.1 159.41-0.8 159.69-0.5 160.09-0.5L160.09-0.5 160.09 0 153.59 0 153.59-0.5Q153.99-0.5 154.29-0.8 154.59-1.1 154.81-1.5 155.04-1.9 155.14-2.38 155.24-2.85 155.24-3.25L155.24-3.25 155.24-14.05Q155.24-15.2 154.91-16.25 154.59-17.3 153.94-18.07 153.29-18.85 152.34-19.33 151.39-19.8 150.19-19.8L150.19-19.8Q148.84-19.8 147.86-19.18 146.89-18.55 146.26-17.65 145.64-16.75 145.34-15.83 145.04-14.9 145.04-14.3L145.04-14.3 145.04-3.25Q145.04-2.85 145.14-2.38 145.24-1.9 145.46-1.5 145.69-1.1 145.96-0.8 146.24-0.5 146.64-0.5L146.64-0.5 146.64 0 140.19 0 140.19-0.5Q140.54-0.5 140.84-0.8 141.14-1.1 141.36-1.5 141.59-1.9 141.69-2.38 141.79-2.85 141.79-3.25L141.79-3.25 141.79-14.35Q141.79-15.55 141.36-16.57 140.94-17.6 140.21-18.3 139.49-19 138.56-19.4 137.64-19.8 136.69-19.8L136.69-19.8Q135.39-19.8 134.41-19.3 133.44-18.8 132.81-18.05 132.19-17.3 131.86-16.43 131.54-15.55 131.54-14.75L131.54-14.75 131.54-3.25Q131.54-2.85 131.64-2.38 131.74-1.9 131.96-1.5 132.19-1.1 132.46-0.8 132.74-0.5 133.14-0.5L133.14-0.5 133.14 0 126.69 0 126.69-0.5Q127.04-0.5 127.34-0.8 127.64-1.1 127.86-1.5 128.09-1.9 128.19-2.38 128.29-2.85 128.29-3.25L128.29-3.25 128.29-16.6Q128.29-17 128.24-17.5 128.19-18 128.04-18.45 127.89-18.9 127.54-19.2 127.19-19.5 126.59-19.5L126.59-19.5 126.59-19.95 131.54-21.6 131.54-19.05Q132.29-19.9 133.61-20.7 134.94-21.5 137.09-21.5L137.09-21.5Q138.49-21.5 139.59-21.1 140.69-20.7 141.51-20.08 142.34-19.45 142.94-18.65 143.54-17.85 143.94-17.1L143.94-17.1Q144.34-17.85 144.89-18.63 145.44-19.4 146.21-20.05 146.99-20.7 148.06-21.1 149.14-21.5 150.59-21.5L150.59-21.5Q153.39-21.5 154.99-20.5 156.59-19.5 157.36-18.1 158.14-16.7 158.34-15.18 158.54-13.65 158.54-12.6L158.54-12.6ZM185.29-10.1L167.94-10.1Q168.14-8.35 168.79-6.78 169.44-5.2 170.51-4 171.59-2.8 173.14-2.08 174.69-1.35 176.74-1.35L176.74-1.35Q177.84-1.35 179.06-1.68 180.29-2 181.34-2.6 182.39-3.2 183.21-4.08 184.04-4.95 184.34-6.05L184.34-6.05 184.79-6.05 184.79-2.3Q184.49-2.3 184.11-2.1 183.74-1.9 183.24-1.6L183.24-1.6Q182.24-1 180.54-0.33 178.84 0.35 176.04 0.35L176.04 0.35Q173.79 0.35 171.76-0.3 169.74-0.95 168.19-2.3 166.64-3.65 165.71-5.75 164.79-7.85 164.79-10.75L164.79-10.75Q164.79-12.6 165.41-14.5 166.04-16.4 167.31-17.93 168.59-19.45 170.59-20.4 172.59-21.35 175.39-21.35L175.39-21.35Q177.89-21.35 179.76-20.5 181.64-19.65 182.86-18.15 184.09-16.65 184.69-14.6 185.29-12.55 185.29-10.1L185.29-10.1ZM175.19-19.7L175.19-19.7Q173.44-19.7 172.16-19 170.89-18.3 169.99-17.2 169.09-16.1 168.59-14.7 168.09-13.3 167.94-11.9L167.94-11.9 182.19-11.9Q182.14-13.35 181.66-14.75 181.19-16.15 180.34-17.25 179.49-18.35 178.19-19.03 176.89-19.7 175.19-19.7ZM209.53-12.9L209.53-3.25Q209.53-2.85 209.63-2.38 209.73-1.9 209.96-1.5 210.18-1.1 210.46-0.8 210.73-0.5 211.13-0.5L211.13-0.5 211.13 0 204.68 0 204.68-0.5Q205.03-0.5 205.33-0.8 205.63-1.1 205.86-1.5 206.08-1.9 206.18-2.38 206.28-2.85 206.28-3.25L206.28-3.25 206.28-12.55Q206.28-14.35 205.78-15.7 205.28-17.05 204.43-17.95 203.58-18.85 202.51-19.28 201.43-19.7 200.33-19.7L200.33-19.7Q199.23-19.7 198.16-19.25 197.08-18.8 196.26-18.07 195.43-17.35 194.91-16.38 194.38-15.4 194.38-14.35L194.38-14.35 194.38-3.25Q194.38-2.85 194.48-2.38 194.58-1.9 194.81-1.5 195.03-1.1 195.31-0.8 195.58-0.5 195.98-0.5L195.98-0.5 195.98 0 189.48 0 189.48-0.5Q189.83-0.5 190.13-0.8 190.43-1.1 190.66-1.5 190.88-1.9 190.98-2.38 191.08-2.85 191.08-3.25L191.08-3.25 191.08-17.05Q191.08-17.9 190.83-18.68 190.58-19.45 189.38-19.5L189.38-19.5 189.38-19.95 194.38-21.55 194.38-18.8Q194.73-19.2 195.28-19.68 195.83-20.15 196.61-20.58 197.38-21 198.41-21.28 199.43-21.55 200.83-21.55L200.83-21.55Q203.18-21.55 204.83-20.75 206.48-19.95 207.53-18.68 208.58-17.4 209.06-15.88 209.53-14.35 209.53-12.9L209.53-12.9ZM226.53-19.3L220.93-19.3 220.93-7.25Q220.93-5.95 220.98-4.9 221.03-3.85 221.23-3.15 221.43-2.45 221.83-2.08 222.23-1.7 222.93-1.7L222.93-1.7Q223.98-1.7 224.91-2.7 225.83-3.7 226.08-5.1L226.08-5.1 226.53-5.1 226.53-1.45Q226.08-1.45 225.78-1.15L225.78-1.15Q225.38-0.8 224.66-0.4 223.93 0 222.48 0L222.48 0Q220.68 0 219.68-0.7 218.68-1.4 218.23-2.55 217.78-3.7 217.71-5.1 217.63-6.5 217.63-7.95L217.63-7.95 217.63-19.3 214.83-19.3 214.83-21 217.63-21 217.63-25.45Q217.63-26.3 217.41-27.03 217.18-27.75 215.93-27.8L215.93-27.8 215.93-28.3 220.93-29.9 220.93-21 226.53-21 226.53-19.3ZM248.33 0L243.48 0 243.48-2.55 243.23-2.3Q241.98-1.05 240.35-0.35 238.73 0.35 236.43 0.35L236.43 0.35Q234.68 0.35 233.43-0.05 232.18-0.45 231.38-1.18 230.58-1.9 230.2-2.85 229.83-3.8 229.83-4.85L229.83-4.85Q229.83-6.55 230.75-7.85 231.68-9.15 233.43-10.15 235.18-11.15 237.7-11.98 240.23-12.8 243.48-13.6L243.48-13.6Q243.38-15.55 242.68-16.75 241.98-17.95 241.03-18.63 240.08-19.3 239.03-19.53 237.98-19.75 237.23-19.75L237.23-19.75Q235.93-19.75 234.95-19.35 233.98-18.95 233.25-18.32 232.53-17.7 232.03-16.98 231.53-16.25 231.23-15.6L231.23-15.6 230.78-15.6 230.78-19.25Q231.18-19.3 231.53-19.5 231.88-19.7 232.38-19.9L232.38-19.9Q233.13-20.2 234.43-20.78 235.73-21.35 238.08-21.35L238.08-21.35Q240.83-21.35 242.53-20.65 244.23-19.95 245.15-18.8 246.08-17.65 246.38-16.18 246.68-14.7 246.68-13.15L246.68-13.15 246.68-3.25Q246.68-2.25 247.13-1.38 247.58-0.5 248.33-0.5L248.33-0.5 248.33 0ZM242.93-4.15L243.48-4.75 243.48-11.9 242.98-11.8Q241.78-11.5 240.05-11 238.33-10.5 236.78-9.7 235.23-8.9 234.13-7.8 233.03-6.7 233.03-5.25L233.03-5.25Q233.03-3.65 234.33-2.6 235.63-1.55 237.73-1.55L237.73-1.55Q239.38-1.55 240.63-2.27 241.88-3 242.93-4.15L242.93-4.15ZM259.88 0L253.33 0 253.33-0.5Q253.73-0.5 254.03-0.8 254.33-1.1 254.55-1.5 254.78-1.9 254.88-2.38 254.98-2.85 254.98-3.25L254.98-3.25 254.98-28.85Q254.98-29.7 254.73-30.45 254.48-31.2 253.23-31.25L253.23-31.25 253.23-31.75 258.28-33.3 258.28-3.25Q258.28-2.85 258.38-2.38 258.48-1.9 258.7-1.5 258.93-1.1 259.2-0.8 259.48-0.5 259.88-0.5L259.88-0.5 259.88 0Z" fill="#f70c0c" data-fill-palette-color="primary"></path><path d="M291.98-33.5L291.98-33.5Q295.88-33.5 298.98-32.13 302.08-30.75 304.25-28.43 306.43-26.1 307.6-23.03 308.78-19.95 308.78-16.6L308.78-16.6Q308.78-12.85 307.4-9.7 306.03-6.55 303.63-4.3 301.23-2.05 298.05-0.78 294.88 0.5 291.28 0.5L291.28 0.5Q287.43 0.5 284.35-0.9 281.28-2.3 279.15-4.6 277.03-6.9 275.88-9.9 274.73-12.9 274.73-16.15L274.73-16.15Q274.73-19.35 275.88-22.48 277.03-25.6 279.25-28.05 281.48-30.5 284.68-32 287.88-33.5 291.98-33.5ZM291.93-1.25L291.93-1.25Q295.28-1.4 297.8-2.78 300.33-4.15 302.03-6.28 303.73-8.4 304.55-10.95 305.38-13.5 305.38-16L305.38-16Q305.38-18.75 304.38-21.55 303.38-24.35 301.53-26.63 299.68-28.9 297.1-30.33 294.53-31.75 291.33-31.75L291.33-31.75Q288.23-31.75 285.78-30.38 283.33-29 281.6-26.85 279.88-24.7 278.98-22.05 278.08-19.4 278.08-16.85L278.08-16.85Q278.08-14.1 279.13-11.33 280.18-8.55 282.03-6.3 283.88-4.05 286.4-2.65 288.93-1.25 291.93-1.25ZM323.48-19.3L317.83-19.3 317.83-3.25Q317.83-2.85 317.93-2.38 318.03-1.9 318.25-1.5 318.48-1.1 318.75-0.8 319.03-0.5 319.43-0.5L319.43-0.5 319.43 0 312.93 0 312.93-0.5Q313.28-0.5 313.58-0.8 313.88-1.1 314.1-1.5 314.33-1.9 314.43-2.38 314.53-2.85 314.53-3.25L314.53-3.25 314.53-19.3 312.03-19.3 312.03-21 314.53-21 314.53-25.05Q314.53-26.6 314.63-28.05 314.73-29.5 315.23-30.65 315.73-31.8 316.75-32.5 317.78-33.2 319.58-33.2L319.58-33.2Q320.58-33.2 321.3-32.98 322.03-32.75 322.55-32.48 323.08-32.2 323.43-31.98 323.78-31.75 324.03-31.75L324.03-31.75 324.03-28.1 323.58-28.1Q323.33-29.55 322.28-30.53 321.23-31.5 320.18-31.5L320.18-31.5Q318.73-31.5 318.28-29.98 317.83-28.45 317.83-25.75L317.83-25.75 317.83-21 323.48-21 323.48-19.3Z" fill="#f11111" data-fill-palette-color="secondary"></path><path d="M356.88-31.7L356.88-31.7Q353.18-31.7 350.45-30.38 347.73-29.05 345.93-26.93 344.13-24.8 343.25-22.15 342.38-19.5 342.38-16.9L342.38-16.9Q342.38-13.95 343.53-11.13 344.68-8.3 346.7-6.13 348.73-3.95 351.43-2.63 354.13-1.3 357.28-1.3L357.28-1.3Q358.18-1.3 359.4-1.5 360.63-1.7 361.83-2.27 363.03-2.85 364.05-3.9 365.08-4.95 365.63-6.65L365.63-6.65 366.13-6.65 366.13-1.1Q365.38-1.1 364.55-0.9 363.73-0.7 362.73-0.45L362.73-0.45Q361.43-0.1 359.85 0.2 358.28 0.5 356.53 0.5L356.53 0.5Q352.18 0.5 348.88-1 345.58-2.5 343.38-4.9 341.18-7.3 340.08-10.33 338.98-13.35 338.98-16.45L338.98-16.45Q338.98-19.55 340.08-22.6 341.18-25.65 343.43-28.08 345.68-30.5 349.08-32 352.48-33.5 357.08-33.5L357.08-33.5Q358.73-33.5 360.05-33.2 361.38-32.9 362.43-32.6L362.43-32.6Q363.18-32.35 363.8-32.23 364.43-32.1 365.03-32.1L365.03-32.1 365.03-26.55 364.53-26.55Q364.23-28.1 363.43-29.13 362.63-30.15 361.55-30.7 360.48-31.25 359.25-31.48 358.03-31.7 356.88-31.7ZM380.93 0.35L380.93 0.35Q378.43 0.35 376.43-0.48 374.43-1.3 373-2.73 371.58-4.15 370.8-6.1 370.03-8.05 370.03-10.35L370.03-10.35Q370.03-12.8 370.88-14.83 371.73-16.85 373.23-18.3 374.73-19.75 376.78-20.55 378.83-21.35 381.23-21.35L381.23-21.35Q383.63-21.35 385.62-20.58 387.63-19.8 389.08-18.4 390.53-17 391.33-15.08 392.12-13.15 392.12-10.85L392.12-10.85Q392.12-8.7 391.4-6.68 390.68-4.65 389.25-3.1 387.83-1.55 385.75-0.6 383.68 0.35 380.93 0.35ZM380.63-19.7L380.63-19.7Q378.83-19.6 377.45-18.82 376.08-18.05 375.15-16.82 374.23-15.6 373.75-14.05 373.28-12.5 373.28-10.9L373.28-10.9Q373.28-9.05 373.85-7.33 374.43-5.6 375.5-4.25 376.58-2.9 378.08-2.1 379.58-1.3 381.43-1.3L381.43-1.3Q383.28-1.3 384.7-2.1 386.12-2.9 387.08-4.17 388.03-5.45 388.5-7.05 388.98-8.65 388.98-10.25L388.98-10.25Q388.98-11.9 388.48-13.58 387.98-15.25 386.93-16.63 385.87-18 384.3-18.85 382.73-19.7 380.63-19.7ZM428.57-12.6L428.57-3.25Q428.57-2.85 428.67-2.38 428.77-1.9 428.97-1.5 429.17-1.1 429.45-0.8 429.72-0.5 430.12-0.5L430.12-0.5 430.12 0 423.62 0 423.62-0.5Q424.02-0.5 424.32-0.8 424.62-1.1 424.85-1.5 425.07-1.9 425.17-2.38 425.27-2.85 425.27-3.25L425.27-3.25 425.27-14.05Q425.27-15.2 424.95-16.25 424.62-17.3 423.97-18.07 423.32-18.85 422.37-19.33 421.42-19.8 420.22-19.8L420.22-19.8Q418.87-19.8 417.9-19.18 416.92-18.55 416.3-17.65 415.67-16.75 415.37-15.83 415.07-14.9 415.07-14.3L415.07-14.3 415.07-3.25Q415.07-2.85 415.17-2.38 415.27-1.9 415.5-1.5 415.72-1.1 416-0.8 416.27-0.5 416.67-0.5L416.67-0.5 416.67 0 410.22 0 410.22-0.5Q410.57-0.5 410.87-0.8 411.17-1.1 411.4-1.5 411.62-1.9 411.72-2.38 411.82-2.85 411.82-3.25L411.82-3.25 411.82-14.35Q411.82-15.55 411.4-16.57 410.97-17.6 410.25-18.3 409.52-19 408.6-19.4 407.67-19.8 406.72-19.8L406.72-19.8Q405.42-19.8 404.45-19.3 403.47-18.8 402.85-18.05 402.22-17.3 401.9-16.43 401.57-15.55 401.57-14.75L401.57-14.75 401.57-3.25Q401.57-2.85 401.67-2.38 401.77-1.9 402-1.5 402.22-1.1 402.5-0.8 402.77-0.5 403.17-0.5L403.17-0.5 403.17 0 396.72 0 396.72-0.5Q397.07-0.5 397.37-0.8 397.67-1.1 397.9-1.5 398.12-1.9 398.22-2.38 398.32-2.85 398.32-3.25L398.32-3.25 398.32-16.6Q398.32-17 398.27-17.5 398.22-18 398.07-18.45 397.92-18.9 397.57-19.2 397.22-19.5 396.62-19.5L396.62-19.5 396.62-19.95 401.57-21.6 401.57-19.05Q402.32-19.9 403.65-20.7 404.97-21.5 407.12-21.5L407.12-21.5Q408.52-21.5 409.62-21.1 410.72-20.7 411.55-20.08 412.37-19.45 412.97-18.65 413.57-17.85 413.97-17.1L413.97-17.1Q414.37-17.85 414.92-18.63 415.47-19.4 416.25-20.05 417.02-20.7 418.1-21.1 419.17-21.5 420.62-21.5L420.62-21.5Q423.42-21.5 425.02-20.5 426.62-19.5 427.4-18.1 428.17-16.7 428.37-15.18 428.57-13.65 428.57-12.6L428.57-12.6ZM445.87-21.35L445.87-21.35Q448.57-21.35 450.55-20.43 452.52-19.5 453.84-18 455.17-16.5 455.82-14.55 456.47-12.6 456.47-10.55L456.47-10.55Q456.47-8.55 455.84-6.6 455.22-4.65 453.95-3.1 452.67-1.55 450.77-0.6 448.87 0.35 446.27 0.35L446.27 0.35Q444.72 0.35 443.1-0.48 441.47-1.3 440.17-2.55L440.17-2.55 440.17 7.25Q440.17 7.65 440.27 8.13 440.37 8.6 440.6 9 440.82 9.4 441.1 9.7 441.37 10 441.77 10L441.77 10 441.77 10.5 435.27 10.5 435.27 10Q435.62 10 435.92 9.7 436.22 9.4 436.45 9 436.67 8.6 436.77 8.13 436.87 7.65 436.87 7.25L436.87 7.25 436.87-18.05Q436.87-18.5 436.85-18.93 436.82-19.35 436.67-19.68 436.52-20 436.2-20.23 435.87-20.45 435.27-20.5L435.27-20.5 435.27-21 440.17-21 440.17-18.8Q441.17-20 442.6-20.68 444.02-21.35 445.87-21.35ZM446.32-1.35L446.32-1.35Q448.07-1.4 449.37-2.15 450.67-2.9 451.52-4.1 452.37-5.3 452.77-6.78 453.17-8.25 453.17-9.85L453.17-9.85Q453.17-11.65 452.67-13.4 452.17-15.15 451.22-16.53 450.27-17.9 448.9-18.78 447.52-19.65 445.77-19.65L445.77-19.65Q444.72-19.65 443.7-19.25 442.67-18.85 441.9-18.1 441.12-17.35 440.65-16.32 440.17-15.3 440.17-14.05L440.17-14.05 440.17-7.5Q440.17-6.15 440.72-5.03 441.27-3.9 442.15-3.08 443.02-2.25 444.12-1.8 445.22-1.35 446.32-1.35ZM480.77-21.55L480.77-3.25Q480.77-2.9 480.87-2.43 480.97-1.95 481.14-1.53 481.32-1.1 481.62-0.8 481.92-0.5 482.32-0.5L482.32-0.5 482.32 0 477.47 0 477.47-2.75Q476.72-1.65 475.27-0.6 473.82 0.45 471.52 0.45L471.52 0.45Q468.62 0.45 466.92-0.55 465.22-1.55 464.32-3.1 463.42-4.65 463.17-6.48 462.92-8.3 462.92-9.9L462.92-9.9 462.92-17.05Q462.92-17.5 462.89-17.93 462.87-18.35 462.69-18.7 462.52-19.05 462.17-19.28 461.82-19.5 461.17-19.5L461.17-19.5 461.17-19.95 466.22-21.55 466.22-8.8Q466.22-5 467.87-3.2 469.52-1.4 471.92-1.4L471.92-1.4Q473.22-1.4 474.24-1.98 475.27-2.55 475.99-3.35 476.72-4.15 477.09-5 477.47-5.85 477.47-6.4L477.47-6.4 477.47-17.05Q477.47-17.5 477.44-17.93 477.42-18.35 477.24-18.7 477.07-19.05 476.72-19.28 476.37-19.5 475.72-19.5L475.72-19.5 475.72-19.95 480.77-21.55ZM497.66-19.3L492.06-19.3 492.06-7.25Q492.06-5.95 492.11-4.9 492.16-3.85 492.36-3.15 492.56-2.45 492.97-2.08 493.36-1.7 494.06-1.7L494.06-1.7Q495.11-1.7 496.04-2.7 496.97-3.7 497.22-5.1L497.22-5.1 497.66-5.1 497.66-1.45Q497.22-1.45 496.91-1.15L496.91-1.15Q496.51-0.8 495.79-0.4 495.06 0 493.61 0L493.61 0Q491.81 0 490.81-0.7 489.81-1.4 489.36-2.55 488.91-3.7 488.84-5.1 488.76-6.5 488.76-7.95L488.76-7.95 488.76-19.3 485.97-19.3 485.97-21 488.76-21 488.76-25.45Q488.76-26.3 488.54-27.03 488.31-27.75 487.06-27.8L487.06-27.8 487.06-28.3 492.06-29.9 492.06-21 497.66-21 497.66-19.3ZM521.51-10.1L504.16-10.1Q504.36-8.35 505.01-6.78 505.66-5.2 506.74-4 507.81-2.8 509.36-2.08 510.91-1.35 512.96-1.35L512.96-1.35Q514.06-1.35 515.29-1.68 516.51-2 517.56-2.6 518.61-3.2 519.44-4.08 520.26-4.95 520.56-6.05L520.56-6.05 521.01-6.05 521.01-2.3Q520.71-2.3 520.34-2.1 519.96-1.9 519.46-1.6L519.46-1.6Q518.46-1 516.76-0.33 515.06 0.35 512.26 0.35L512.26 0.35Q510.01 0.35 507.99-0.3 505.96-0.95 504.41-2.3 502.86-3.65 501.94-5.75 501.01-7.85 501.01-10.75L501.01-10.75Q501.01-12.6 501.64-14.5 502.26-16.4 503.54-17.93 504.81-19.45 506.81-20.4 508.81-21.35 511.61-21.35L511.61-21.35Q514.11-21.35 515.99-20.5 517.86-19.65 519.09-18.15 520.31-16.65 520.91-14.6 521.51-12.55 521.51-10.1L521.51-10.1ZM511.41-19.7L511.41-19.7Q509.66-19.7 508.39-19 507.11-18.3 506.21-17.2 505.31-16.1 504.81-14.7 504.31-13.3 504.16-11.9L504.16-11.9 518.41-11.9Q518.36-13.35 517.89-14.75 517.41-16.15 516.56-17.25 515.71-18.35 514.41-19.03 513.11-19.7 511.41-19.7ZM539.36-20.4L537.86-17.35Q537.26-18.35 536.61-18.6 535.96-18.85 535.11-18.85L535.11-18.85Q534.56-18.85 533.94-18.6 533.31-18.35 532.71-17.95 532.11-17.55 531.53-17.07 530.96-16.6 530.56-16.2L530.56-16.2 530.56-3.2Q530.56-2.8 530.66-2.35 530.76-1.9 530.98-1.48 531.21-1.05 531.48-0.78 531.76-0.5 532.16-0.5L532.16-0.5 532.16 0 525.66 0 525.66-0.5Q526.01-0.5 526.31-0.78 526.61-1.05 526.84-1.48 527.06-1.9 527.16-2.35 527.26-2.8 527.26-3.2L527.26-3.2 527.26-17.15Q527.26-17.85 526.81-18.55 526.36-19.25 525.51-19.45L525.51-19.45 525.51-19.85 530.56-21.35 530.56-18.35Q531.01-18.9 531.51-19.43 532.01-19.95 532.63-20.38 533.26-20.8 534.01-21.08 534.76-21.35 535.76-21.35L535.76-21.35Q536.46-21.35 537.56-21.05 538.66-20.75 539.36-20.4L539.36-20.4Z" fill="#000000" data-fill-palette-color="accent"></path></g></svg></g></svg></g><g transform="matrix(1,0,0,1,0,40.028437474655746)"><svg viewBox="0 0 395.52 20.012988165240042" height="20.012988165240042" width="395.52"><g transform="matrix(1,0,0,1,0,0)"><svg width="395.52" viewBox="1.2200000286102295 -26.540000915527344 703.9700317382812 35.62000274658203" height="20.012988165240042" data-palette-color="#f11111"><path d="M10.86 0.73Q13.13 0.73 15.27-0.16 17.41-1.05 18.43-2.27L18.43-2.27 17.82-3.69Q16.72-2.98 15.63-2.59 14.53-2.2 12.89-2.2L12.89-2.2Q10.52-2.2 8.89-3.81 7.25-5.42 6.45-7.79 5.64-10.16 5.64-12.38L5.64-12.38Q5.64-14.58 6.24-16.22 6.84-17.87 7.92-18.77 9.01-19.68 10.45-19.68L10.45-19.68Q11.87-19.68 12.76-18.54 13.65-17.41 14.38-15.67L14.38-15.67Q15.87-15.77 16.67-16.46 17.48-17.14 17.48-18.24L17.48-18.24Q17.48-19.24 16.83-20.09 16.19-20.95 14.87-21.46 13.55-21.97 11.6-21.97L11.6-21.97Q8.91-21.97 6.53-20.5 4.15-19.02 2.69-16.32 1.22-13.62 1.22-10.13L1.22-10.13Q1.22-7.2 2.42-4.71 3.61-2.22 5.81-0.74 8.01 0.73 10.86 0.73L10.86 0.73ZM105.1 0.66Q107.94 0.66 110.28-0.78 112.62-2.22 113.98-4.83 115.33-7.45 115.33-10.77L115.33-10.77Q115.33-14.11 114.17-16.66 113.01-19.21 110.83-20.63 108.64-22.05 105.69-22.05L105.69-22.05Q102.91-22.05 100.48-20.65 98.05-19.26 96.56-16.61 95.07-13.96 95.07-10.4L95.07-10.4Q95.07-7.23 96.25-4.72 97.44-2.22 99.7-0.78 101.95 0.66 105.1 0.66L105.1 0.66ZM104.66-19.48Q106.84-19.48 108.27-17.88 109.69-16.28 110.34-13.84 110.99-11.4 110.99-8.76L110.99-8.76Q110.99-6.96 110.43-5.35 109.86-3.74 108.72-2.72 107.57-1.71 105.93-1.71L105.93-1.71Q103.66-1.71 102.2-3.2 100.73-4.69 100.07-7.06 99.42-9.42 99.42-12.13L99.42-12.13Q99.42-14.14 99.98-15.81 100.54-17.48 101.72-18.48 102.91-19.48 104.66-19.48L104.66-19.48ZM203.71 0L203.98-1.93 200.49-2.78 200.49-16.43Q201.39-17.46 202.66-18.01 203.93-18.55 205.3-18.55L205.3-18.55Q206.47-18.55 207.43-18.02 208.38-17.48 208.93-16.5 209.48-15.53 209.48-14.28L209.48-14.28 209.48-2.78 206.28-1.81 206.01 0 216.82 0 217.07-1.93 213.46-2.78 213.46-16.11Q214.53-17.26 215.59-17.91 216.65-18.55 218.12-18.55L218.12-18.55Q220.02-18.55 221.12-17.33 222.22-16.11 222.22-14.28L222.22-14.28 222.22-2.76 219.17-1.78 219 0 229.37 0 229.69-1.93 226.32-2.81 226.32-14.87Q226.32-21.68 220.56-21.68L220.56-21.68Q218.39-21.68 216.52-20.59 214.65-19.51 213.36-17.85L213.36-17.85 213.06-17.85Q212.53-19.92 211.03-20.9 209.52-21.88 207.67-21.88L207.67-21.88Q205.52-21.88 203.58-20.78 201.64-19.68 200.34-18.07L200.34-18.07 200.13-18.07 200.56-21.14 200.13-21.66 192.7-20.63 192.46-18.8 196.37-17.55 196.37-2.78 192.7-1.81 192.46 0 203.71 0ZM316.58 9.08L316.87 7.13 313.07 6.27 313.07-16.26Q314.04-17.29 315.35-18.02 316.66-18.75 318.07-18.75L318.07-18.75Q320.39-18.75 321.56-16.52 322.73-14.28 322.73-9.91L322.73-9.91Q322.73-6.37 321.42-4.27 320.1-2.17 317.63-2.17L317.63-2.17Q316.19-2.17 315.46-2.28 314.73-2.39 313.9-2.71L313.9-2.71 314.04 0.24Q315.26 0.46 316.34 0.46L316.34 0.46Q319.44 0.46 321.92-1.05 324.39-2.56 325.8-5.27 327.2-7.98 327.2-11.4L327.2-11.4Q327.2-14.99 326.25-17.35 325.3-19.7 323.64-20.83 321.98-21.95 319.8-21.95L319.8-21.95Q317.66-21.95 315.95-20.75 314.24-19.56 313.07-17.92L313.07-17.92 312.9-17.92 313.24-21.07 312.72-21.53 305.62-20.63 305.33-18.75 309.09-17.63 309.09 6.25 305.35 7.18 305.2 9.08 316.58 9.08ZM407.16-17.77L407.16-6.52Q407.16-2.78 408.61-1.11 410.06 0.56 412.6 0.56L412.6 0.56Q417 0.56 419.59-3.2L419.59-3.2 419.9-3.2 419.9-2.98Q419.9-1.39 420.82-0.42 421.73 0.56 423.49 0.56L423.49 0.56Q424.57 0.56 425.3 0.46 426.03 0.37 427.18 0.1L427.18 0.1 427.4-1.93 426.28-2.17Q425.27-2.39 424.76-2.64 424.25-2.88 423.94-3.48 423.64-4.08 423.64-5.25L423.64-5.25 423.64-20.97 423.13-21.56 415.95-20.9 415.7-18.65 419.59-17.63 419.59-4.66Q418.71-3.76 417.65-3.27 416.58-2.78 415.05-2.78L415.05-2.78Q411.29-2.78 411.29-7.74L411.29-7.74 411.29-20.97 410.68-21.56 404.13-21.04 403.79-19.12 407.16-17.77ZM506.38-18.63L506.28-6.35Q506.26-2.54 507.64-0.99 509.02 0.56 511.48 0.56L511.48 0.56Q513.53 0.56 515.24-0.39 516.95-1.34 518.1-3.03L518.1-3.03 517.59-4.35Q517.59-4.32 517.01-3.96 516.44-3.59 515.66-3.28 514.88-2.98 514.07-2.98L514.07-2.98Q512.78-2.98 512-3.42 511.21-3.86 510.85-4.91 510.48-5.96 510.48-7.79L510.48-7.79 510.55-18.58 517.29-18.58 517.51-20.73 510.6-20.73 510.6-26.54 509.31-26.54Q507.99-24.73 506.38-22.95 504.77-21.17 503.28-19.95L503.28-19.95 503.28-18.63 506.38-18.63ZM603.72 0.73Q606.11 0.73 608.2-0.13 610.29-1 611.75-2.54L611.75-2.54 611.24-3.83Q610.04-3.2 609.14-2.91 608.24-2.61 607.55-2.55 606.87-2.49 605.7-2.49L605.7-2.49Q603.55-2.49 602.05-3.72 600.55-4.96 599.77-6.88 598.98-8.81 598.89-10.86L598.89-10.86 610.7-11.01Q610.85-11.65 610.97-12.63 611.09-13.62 611.09-14.18L611.09-14.18Q611.09-16.67 610.23-18.42 609.36-20.17 607.87-21.06 606.38-21.95 604.58-21.95L604.58-21.95Q602.13-21.95 599.81-20.56 597.49-19.17 596.02-16.55 594.54-13.94 594.54-10.45L594.54-10.45Q594.54-6.91 595.83-4.37 597.13-1.83 599.24-0.55 601.35 0.73 603.72 0.73L603.72 0.73ZM603.38-19.56Q606.75-19.56 606.75-15.01L606.75-15.01Q606.75-14.65 606.71-14.12 606.67-13.6 606.6-13.33L606.6-13.33 598.94-12.77Q599.06-15.01 599.73-16.54 600.4-18.07 601.38-18.81 602.35-19.56 603.38-19.56L603.38-19.56ZM702.09 0L702.33-2.12 696.64-2.95 696.64-12.3Q696.89-14.04 697.61-15.23 698.33-16.43 699.21-17.03 700.08-17.63 700.82-17.63L700.82-17.63Q701.52-17.63 702.31-17.37 703.09-17.11 703.8-16.67L703.8-16.67Q705.19-17.85 705.19-19.38L705.19-19.38Q705.19-20.48 704.43-21.3 703.67-22.12 702.48-22.12L702.48-22.12Q701.38-22.12 700.26-21.37 699.13-20.63 698.13-19.14 697.13-17.65 696.5-15.53L696.5-15.53 696.03-15.53 696.52-21.14 695.96-21.73 688.95-20.83 688.61-18.97 692.59-17.77 692.59-2.78 688.85-1.81 688.61 0 702.09 0Z" opacity="1" transform="matrix(1,0,0,1,0,0)" fill="#f11111" class="undefined-text-1" data-fill-palette-color="secondary" id="text-1"></path></svg></g></svg></g></svg></g></svg></g><g transform="matrix(1,0,0,1,125.43777210671776,0)"><svg viewBox="0 0 144.64445578656446 144.64445578656446" height="144.64445578656446" width="144.64445578656446"><g><svg></svg></g><g id="icon-0"><svg viewBox="0 0 144.64445578656446 144.64445578656446" height="144.64445578656446" width="144.64445578656446"><g><path d="M0 72.322c0-39.942 32.38-72.322 72.322-72.322 39.942 0 72.322 32.38 72.322 72.322 0 39.942-32.38 72.322-72.322 72.322-39.942 0-72.322-32.38-72.322-72.322zM72.322 141.724c38.33 0 69.402-31.072 69.402-69.402 0-38.33-31.072-69.402-69.402-69.402-38.33 0-69.402 31.072-69.402 69.402 0 38.33 31.072 69.402 69.402 69.402z" data-fill-palette-color="accent" fill="#000000" stroke="transparent"></path></g><g transform="matrix(1,0,0,1,31.889660896606415,31.889660896606415)"><svg viewBox="0 0 80.86513399335163 80.86513399335163" height="80.86513399335163" width="80.86513399335163"><g><svg xmlns="http://www.w3.org/2000/svg" xmlns:xlink="http://www.w3.org/1999/xlink" version="1.0" x="0" y="0" viewBox="1 1 48 48" enable-background="new 0 0 50 50" xml:space="preserve" height="80.86513399335163" width="80.86513399335163" class="icon-x-0" data-fill-palette-color="accent" id="x-0"><g fill="#000000" data-fill-palette-color="accent"><g fill="#000000" data-fill-palette-color="accent"><rect x="1" y="1" fill="#000000" width="23" height="5" data-fill-palette-color="accent"></rect><rect x="1" y="10" fill="#000000" width="23" height="5" data-fill-palette-color="accent"></rect><rect x="1" y="19" fill="#000000" width="23" height="5" data-fill-palette-color="accent"></rect></g><g fill="#000000" data-fill-palette-color="accent"><rect x="26" y="26" fill="#000000" width="23" height="5" data-fill-palette-color="accent"></rect><rect x="26" y="35" fill="#000000" width="23" height="5" data-fill-palette-color="accent"></rect><rect x="26" y="44" fill="#000000" width="23" height="5" data-fill-palette-color="accent"></rect></g><g fill="#000000" data-fill-palette-color="accent"><rect x="19" y="26" fill="#000000" width="5" height="23" data-fill-palette-color="accent"></rect><rect x="10" y="26" fill="#000000" width="5" height="23" data-fill-palette-color="accent"></rect><rect x="1" y="26" fill="#000000" width="5" height="23" data-fill-palette-color="accent"></rect></g><g fill="#000000" data-fill-palette-color="accent"><rect x="44" y="1" fill="#000000" width="5" height="23" data-fill-palette-color="accent"></rect><rect x="35" y="1" fill="#000000" width="5" height="23" data-fill-palette-color="accent"></rect><rect x="26" y="1" fill="#000000" width="5" height="23" data-fill-palette-color="accent"></rect></g></g></svg></g></svg></g></svg></g></svg></g><g></g></svg></g></svg><rect width="395.52" height="219.97580438470362" fill="none" stroke="none" visibility="hidden"></rect></g></svg></g></svg>